<svg width="276" height="97" viewBox="0 0 276 97" fill="none" xmlns="http://www.w3.org/2000/svg">
<path d="M99.3434 10.2916H81.1862V53.8711H71.417V10.2916H53.9604V1.15039L99.3434 1.17057V10.2916Z" fill="white"/>
<path d="M170.551 10.2916H152.404V53.8711H142.624V10.2916H125.178V1.15039L170.551 1.17057V10.2916Z" fill="white"/>
<path d="M117.5 1.15039H107.721V53.8711H117.5V1.15039Z" fill="white"/>
<path d="M213.841 32.7868C213.841 39.0859 209.077 44.7299 200.919 44.7299C192.762 44.7299 187.997 39.0859 187.997 32.7868V1.15039H178.228V32.0813C178.228 46.1913 188.147 54.5766 200.909 54.5766C213.671 54.5766 223.601 46.1409 223.601 32.0813V1.15039H213.831L213.841 32.7868Z" fill="white"/>
<path d="M56.0626 53.8711L39.2968 1.15039H28.1262L44.882 53.8711H56.0626Z" fill="white"/>
<path d="M16.9555 1.15039L0.199707 53.8711H11.3703L13.8326 46.1409H35.1127L32.32 36.9997H16.7353L28.1261 1.15039H16.9555Z" fill="white"/>
<path d="M234.781 41.2226C240.336 43.4624 246.254 44.6514 252.237 44.7299C259.915 44.7299 265.5 43.329 265.5 39.4588C265.5 33.4823 254.329 33.4823 243.859 29.975C235.482 27.1631 231.988 22.92 231.988 15.8651C231.988 6.01838 241.768 0.394531 255.01 0.394531C261.225 0.409238 267.381 1.6025 273.157 3.91192L269.674 13.0531C264.56 11.1031 259.126 10.1489 253.659 10.2413C246.652 10.2413 242.488 11.6623 242.488 15.1596C242.488 20.0779 253.318 21.1059 261.346 23.5953C270.415 26.4072 276 29.2191 276 38.3603C276 48.9024 266.931 54.4859 250.866 54.4859C243.189 54.4859 236.212 53.0749 231.328 50.263L234.781 41.2226Z" fill="white"/>
<path d="M69.5653 73.9082V76.9922H57.3737V81.3663H69.0147V84.4503H57.3737V88.8748H69.5653V91.9588H53.9604V73.9082H69.5653Z" fill="white"/>
<path d="M87.3326 87.4739C87.9018 86.9239 88.3426 86.2534 88.6231 85.5109C88.9035 84.7683 89.0166 83.9724 88.9541 83.1804V82.7471C88.9541 78.9038 86.752 76.9855 82.3479 76.9922H77.1329V88.8748H82.3778C84.159 89.0278 85.9353 88.5306 87.3825 87.4739H87.3326ZM82.3778 73.9082C85.6742 73.9082 88.1733 74.6607 89.8749 76.1658C91.5765 77.6675 92.4273 79.8747 92.4273 82.7673V83.1301C92.4273 86.0192 91.5765 88.213 89.8749 89.7113C88.1733 91.2096 85.6742 91.9588 82.3778 91.9588H73.7097V73.9082H82.3778Z" fill="white"/>
<path d="M100.175 91.2533C98.8936 90.6048 97.8264 89.5967 97.1018 88.3507C96.3491 87.0306 95.9683 85.5287 96.0007 84.0069V73.9284H99.424V84.0875C99.3878 84.7684 99.4938 85.4494 99.7352 86.0865C99.9765 86.7236 100.348 87.3027 100.825 87.7863C101.965 88.6498 103.353 89.1167 104.779 89.1167C106.205 89.1167 107.593 88.6498 108.733 87.7863C109.217 87.3067 109.594 86.7288 109.839 86.0911C110.084 85.4533 110.191 84.7703 110.154 84.0875V73.9082H113.577V83.9867C113.61 85.5086 113.229 87.0104 112.476 88.3306C111.753 89.5813 110.681 90.5906 109.393 91.2332C107.959 91.9393 106.375 92.2851 104.779 92.241C103.186 92.2875 101.605 91.9416 100.175 91.2332" fill="white"/>
<path d="M152.283 84.7527L148.95 77.3752L145.616 84.7527H152.283ZM159.029 91.4347V91.9588H155.556L153.704 87.8367H144.195L142.343 91.9588H138.87V91.4347L147.068 73.9082H150.831L159.029 91.4347Z" fill="white"/>
<path d="M195.065 84.7519L191.732 77.3744L188.398 84.7519H195.065ZM193.163 71.6498C192.723 71.5793 192.162 71.4684 191.601 71.3273C190.7 71.0811 189.773 70.9425 188.839 70.9141C187.795 70.9202 186.766 71.1722 185.836 71.6498V68.848C186.786 68.3615 187.833 68.0995 188.899 68.082C189.842 68.1158 190.778 68.2716 191.682 68.5456C192.372 68.7069 192.923 68.8278 193.333 68.8984C193.769 68.9779 194.211 69.015 194.654 69.0092C195.712 69.0003 196.755 68.7667 197.717 68.3239V71.2164C196.733 71.6358 195.673 71.8484 194.604 71.8413C194.131 71.8461 193.659 71.809 193.193 71.7304L193.163 71.6498ZM201.841 91.4843V92.0084H198.378L196.516 87.8863H187.007L185.155 92.0084H181.682V91.4843L189.88 73.9578H193.643L201.841 91.4843Z" fill="white"/>
<path d="M218.326 87.5427C218.939 86.9982 219.422 86.3207 219.737 85.5613C220.053 84.802 220.193 83.9804 220.148 83.1585V82.7655C220.191 81.9393 220.05 81.1139 219.735 80.3499C219.42 79.586 218.938 78.9029 218.326 78.3511C216.802 77.3194 215.008 76.7684 213.171 76.7684C211.335 76.7684 209.54 77.3194 208.016 78.3511C207.401 78.9011 206.917 79.5835 206.6 80.3478C206.283 81.112 206.141 81.9384 206.185 82.7655V83.1585C206.139 83.9814 206.28 84.8039 206.598 85.5636C206.915 86.3233 207.4 87.0001 208.016 87.5427C209.547 88.5554 211.339 89.095 213.171 89.095C215.003 89.095 216.795 88.5554 218.326 87.5427ZM207.646 91.1608C206.148 90.4725 204.881 89.3586 204.003 87.9559C203.122 86.4934 202.674 84.8081 202.711 83.098V82.7957C202.673 81.0824 203.121 79.3937 204.003 77.9277C204.876 76.5147 206.148 75.3955 207.656 74.7127C209.398 73.9704 211.27 73.5879 213.161 73.5879C215.053 73.5879 216.925 73.9704 218.666 74.7127C220.168 75.4012 221.435 76.5193 222.31 77.9277C223.185 79.3961 223.629 81.0838 223.591 82.7957V83.098C223.627 84.8065 223.183 86.4904 222.31 87.9559C221.43 89.3537 220.168 90.4664 218.676 91.1608C216.934 91.9004 215.062 92.2814 213.171 92.2814C211.28 92.2814 209.409 91.9004 207.666 91.1608" fill="white"/>
<path d="M134.487 85.2047C134.399 85.8703 134.117 86.4945 133.676 86.9987C133.03 87.719 132.204 88.2515 131.284 88.5407C130.147 88.9305 128.951 89.1181 127.751 89.095C125.862 89.2241 123.988 88.6819 122.456 87.5631C121.836 87.0229 121.349 86.3465 121.032 85.5862C120.714 84.826 120.574 84.0022 120.624 83.1789V82.7153C120.575 81.8881 120.715 81.0607 121.035 80.297C121.354 79.5333 121.844 78.8537 122.466 78.311C123.994 77.1901 125.864 76.6444 127.751 76.769C128.939 76.7531 130.12 76.944 131.244 77.3334C132.175 77.6329 133.011 78.1754 133.666 78.9057C133.818 79.089 133.956 79.2845 134.077 79.4902H137.76C137.547 78.6822 137.176 77.925 136.669 77.2629C135.708 76.0507 134.443 75.1184 133.006 74.5618C131.338 73.8756 129.552 73.5329 127.751 73.554C125.827 73.5115 123.917 73.8933 122.155 74.6727C120.635 75.3511 119.347 76.4659 118.452 77.8776C117.563 79.3372 117.111 81.0239 117.151 82.7355V83.0983C117.109 84.8038 117.561 86.4846 118.452 87.936C119.347 89.3448 120.635 90.4562 122.155 91.1309C123.916 91.9137 125.826 92.2989 127.751 92.2597C129.551 92.2757 131.337 91.9331 133.006 91.2518C134.442 90.6918 135.705 89.7601 136.669 88.5508C137.433 87.5738 137.884 86.3855 137.96 85.1443L134.487 85.2047Z" fill="white"/>
<path d="M177.267 85.2067C177.183 85.8734 176.901 86.4988 176.457 87.0006C175.813 87.7187 174.99 88.251 174.074 88.5427C172.934 88.9316 171.735 89.1191 170.531 89.097C168.643 89.2243 166.769 88.6823 165.236 87.565C164.617 87.0249 164.13 86.3485 163.812 85.5882C163.494 84.8279 163.355 84.0042 163.404 83.1809V82.7173C163.355 81.8901 163.496 81.0627 163.815 80.2989C164.135 79.5352 164.624 78.8557 165.246 78.3129C166.774 77.192 168.645 76.6464 170.531 76.771C171.722 76.7559 172.907 76.9468 174.034 77.3354C174.962 77.6374 175.793 78.1796 176.447 78.9076C176.602 79.0884 176.74 79.2843 176.857 79.4922H180.541C180.327 78.6842 179.956 77.927 179.449 77.2648C178.49 76.0548 177.23 75.1228 175.796 74.5638C174.125 73.8786 172.335 73.5359 170.531 73.5559C168.607 73.5135 166.698 73.8953 164.936 74.6746C163.417 75.3556 162.129 76.4698 161.232 77.8796C160.344 79.3391 159.892 81.0258 159.931 82.7374V83.1002C159.89 84.8057 160.342 86.4865 161.232 87.938C162.13 89.3448 163.417 90.4556 164.936 91.1328C166.11 91.663 167.36 92.0031 168.639 92.1407L167.368 96.6055H171.022L172.303 92.1508C173.502 92.0269 174.677 91.7351 175.796 91.284C177.228 90.7212 178.487 89.7898 179.449 88.583C180.214 87.606 180.664 86.4177 180.741 85.1764L177.267 85.2067Z" fill="white"/>
</svg>
